<?xml version="1.0" standalone="no"?>
<!DOCTYPE svg PUBLIC "-//W3C//DTD SVG 20010904//EN"
 "http://www.w3.org/TR/2001/REC-SVG-20010904/DTD/svg10.dtd">
<svg version="1.0" xmlns="http://www.w3.org/2000/svg"
 width="250.000000pt" height="238.000000pt" viewBox="0 0 250.000000 238.000000"
 preserveAspectRatio="xMidYMid meet">

 <!-- White Background with Rounded Corners -->
 <rect width="250" height="238" fill="white" rx="50" ry="50"/>

<g transform="translate(0.000000,238.000000) scale(0.100000,-0.100000)"
fill="#000000" stroke="none">
<path d="M1122 2300 c-149 -21 -315 -75 -434 -140 -80 -43 -73 -48 10 -6 164
82 351 127 528 128 201 0 317 -28 500 -117 111 -54 294 -174 294 -192 0 -3
-10 2 -22 11 -154 109 -314 184 -497 234 -87 23 -115 26 -286 26 -154 1 -202
-2 -255 -17 -78 -22 -273 -116 -315 -152 -27 -23 -25 -22 25 6 299 172 691
171 1050 -2 247 -119 405 -277 531 -531 52 -104 54 -107 65 -80 10 25 12 23
30 -53 29 -120 27 -398 -4 -513 -24 -92 -64 -188 -116 -281 -54 -95 -23 -62
38 42 59 99 118 259 135 367 53 328 -91 734 -342 966 -144 134 -365 242 -588
289 -91 19 -263 27 -347 15z"/>
<path d="M336 1771 c-127 -173 -206 -408 -206 -614 0 -50 -2 -88 -5 -85 -3 3
-10 41 -15 86 -18 140 17 324 94 504 19 43 30 76 26 73 -16 -10 -89 -192 -109
-270 -30 -118 -41 -249 -30 -336 13 -96 103 -397 141 -474 136 -270 348 -449
649 -549 151 -51 251 -62 412 -48 140 13 307 47 395 80 61 24 173 89 217 127
24 20 18 18 -25 -8 -30 -19 -78 -46 -106 -60 -139 -70 -520 -125 -677 -98
-155 27 -362 112 -491 201 -75 52 -213 187 -237 231 -7 13 24 -10 69 -53 190
-178 493 -347 631 -352 70 -2 61 20 -16 37 -94 21 -233 84 -388 175 -231 137
-403 336 -463 535 -48 163 -40 466 19 639 24 72 90 206 131 266 40 58 28 53
-16 -7z"/>
<path d="M1530 1200 l0 -250 55 0 c48 0 55 2 55 20 0 19 1 19 36 -2 62 -36
149 -23 197 30 46 51 60 158 28 227 -45 99 -158 135 -235 74 l-26 -20 0 85 0
86 -55 0 -55 0 0 -250z m245 5 c35 -34 35 -102 0 -135 -56 -53 -135 -11 -135
71 0 50 35 89 80 89 19 0 40 -9 55 -25z"/>
<path d="M580 1185 l0 -235 60 0 60 0 0 95 0 95 90 0 90 0 0 -95 0 -95 55 0
55 0 0 235 0 235 -55 0 -55 0 0 -90 0 -90 -90 0 -90 0 0 90 0 90 -60 0 -60 0
0 -235z"/>
<path d="M1070 1189 c0 -148 12 -188 64 -221 39 -24 135 -21 164 5 24 22 32
21 32 -3 0 -18 7 -20 55 -20 l55 0 0 185 0 185 -54 0 -54 0 -4 -121 c-3 -113
-5 -122 -27 -140 -32 -26 -67 -24 -96 6 -24 23 -25 30 -25 140 l0 115 -55 0
-55 0 0 -131z"/>
<path d="M1992 1054 c-15 -10 -22 -25 -22 -48 0 -40 18 -57 59 -58 62 -2 92
61 51 102 -24 24 -57 26 -88 4z"/>
<path d="M1949 303 c-13 -16 -12 -17 4 -4 16 13 21 21 13 21 -2 0 -10 -8 -17
-17z"/>
</g>
</svg>
